HIERARCHY
ROOT Hips
{
  OFFSET 48.5919 103.418 -17.1117
  CHANNELS 6 Xposition Yposition Zposition Zrotation Xrotation Yrotation
  JOINT Chest
  {
    OFFSET 1.23234e-007 14.8421 1.27323e-009
    CHANNELS 6 Xposition Yposition Zposition Zrotation Xrotation Yrotation
    JOINT Neck
    {
      OFFSET 0.51659 29.8236 6.51843
      CHANNELS 6 Xposition Yposition Zposition Zrotation Xrotation Yrotation
      JOINT Head
      {
        OFFSET 1.16803e-007 7.47049 6.44171e-007
        CHANNELS 6 Xposition Yposition Zposition Zrotation Xrotation Yrotation
        End Site
        {
          OFFSET -4.32676e-008 16.2908 2.16786e-007
        }
      }
    }
    JOINT LeftCollar
    {
      OFFSET 6.64893 27.3161 3.27471
      CHANNELS 6 Xposition Yposition Zposition Zrotation Xrotation Yrotation
      JOINT LeftUpArm
      {
        OFFSET 10.8584 2.41798 -0.945791
        CHANNELS 6 Xposition Yposition Zposition Zrotation Xrotation Yrotation
        JOINT LeftLowArm
        {
          OFFSET 3.77631 -24.5904 -1.70468
          CHANNELS 6 Xposition Yposition Zposition Zrotation Xrotation Yrotation
          JOINT LeftHand
          {
            OFFSET 1.01026 -21.1231 1.74131
            CHANNELS 6 Xposition Yposition Zposition Zrotation Xrotation Yrotation
            End Site
            {
              OFFSET 1.17583e-006 -9.81266 -2.89439e-008
            }
          }
        }
      }
    }
    JOINT RightCollar
    {
      OFFSET -6.11406 27.2248 4.23427
      CHANNELS 6 Xposition Yposition Zposition Zrotation Xrotation Yrotation
      JOINT RightUpArm
      {
        OFFSET -10.4566 2.3285 -0.910794
        CHANNELS 6 Xposition Yposition Zposition Zrotation Xrotation Yrotation
        JOINT RightLowArm
        {
          OFFSET -3.86856 -25.191 -1.74633
          CHANNELS 6 Xposition Yposition Zposition Zrotation Xrotation Yrotation
          JOINT RightHand
          {
            OFFSET -1.04759 -20.6242 1.75213
            CHANNELS 6 Xposition Yposition Zposition Zrotation Xrotation Yrotation
            End Site
            {
              OFFSET -2.03487e-006 -9.50367 -4.31372e-006
            }
          }
        }
      }
    }
  }
  JOINT LeftUpLeg
  {
    OFFSET 9 -3.38008e-006 -5.22997e-009
    CHANNELS 6 Xposition Yposition Zposition Zrotation Xrotation Yrotation
    JOINT LeftLowLeg
    {
      OFFSET -0.575 -51.431 3.90177
      CHANNELS 6 Xposition Yposition Zposition Zrotation Xrotation Yrotation
      JOINT LeftFoot
      {
        OFFSET 2.13082e-007 -43.5882 -3.90177
        CHANNELS 6 Xposition Yposition Zposition Zrotation Xrotation Yrotation
        End Site
        {
          OFFSET 7.44796e-007 -6.93413 15.0046
        }
      }
    }
  }
  JOINT RightUpLeg
  {
    OFFSET -9 6.86154e-007 -3.19535e-009
    CHANNELS 6 Xposition Yposition Zposition Zrotation Xrotation Yrotation
    JOINT RightLowLeg
    {
      OFFSET 0.575 -51.4311 3.90177
      CHANNELS 6 Xposition Yposition Zposition Zrotation Xrotation Yrotation
      JOINT RightFoot
      {
        OFFSET -7.46079e-007 -43.5882 -3.90177
        CHANNELS 6 Xposition Yposition Zposition Zrotation Xrotation Yrotation
        End Site
        {
          OFFSET 4.66716e-007 -6.93413 15.0046
        }
      }
    }
  }
}
MOTION
Frames:	9
Frame Time:	0.0333333
64.238 100.526 -60.0696 2.38994 2.77038 -15.1304 1.23234e-007 14.8421 1.27317e-009 -2.30143 3.97123 4.21562 0.51659 29.8236 6.51843 4.83725 -34.1108 1.7378 1.16803e-007 7.47049 6.44171e-007 -4.09461 10.5743 2.7851 6.64893 27.3161 3.27471 -2.94784 5.93879 -4.20517 10.8584 2.41798 -0.945791 30.9867 -30.7717 19.4627 3.77631 -24.5904 -1.70468 -2.18222 -74.0145 -25.0545 1.01026 -21.1231 1.74131 24.0309 8.64469 1.3947 -6.11406 27.2248 4.23427 -1.96452 7.32629 3.42623 -10.4566 2.3285 -0.910794 -29.2252 -3.31156 0.105598 -3.86856 -25.191 -1.74633 89.4208 -73.1475 141.221 -1.04759 -20.6242 1.75213 -16.8268 6.79416 -1.34362 9 -3.38008e-006 -5.22969e-009 6.17363 -8.92927 11.546 -0.575 -51.431 3.90177 -5.28827 16.4959 -11.7918 2.13081e-007 -43.5882 -3.90177 2.78086 -2.47891 -0.226775 -9 6.86154e-007 -3.19462e-009 -3.84037 -4.55426 -15.7502 0.575 -51.4311 3.90177 0.0633997 25.0033 3.11536 -7.46081e-007 -43.5882 -3.90177 -6.32388 -8.20543 0.234401 
64.2176 99.5852 -60.5248 2.49729 2.27882 -15.4355 1.23234e-007 14.8421 1.27341e-009 -3.28154 5.91139 4.52877 0.51659 29.8236 6.51843 3.8041 -37.8462 1.51947 1.16803e-007 7.47049 6.44171e-007 -2.37274 11.9511 1.9452 6.64893 27.3161 3.27471 -2.94784 5.93879 -4.20517 10.8584 2.41798 -0.945791 31.6268 -32.9751 21.2326 3.77631 -24.5904 -1.70468 -2.01512 -74.1329 -21.7003 1.01026 -21.1231 1.74131 23.8983 5.64505 1.83071 -6.11406 27.2248 4.23427 -1.96452 7.32629 3.42623 -10.4566 2.3285 -0.910794 -24.5478 -5.67407 -1.6114 -3.86856 -25.191 -1.74633 84.7919 -73.8952 135.334 -1.04759 -20.6242 1.75213 -16.4348 6.42489 -1.3478 9 -3.38008e-006 -5.22977e-009 6.93078 -10.5119 12.5693 -0.575 -51.431 3.90177 -6.20265 20.807 -12.0688 2.13081e-007 -43.5882 -3.90177 4.52906 -3.71167 -0.325198 -9 6.86154e-007 -3.19462e-009 -3.06272 -4.236 -14.9235 0.575 -51.4311 3.90177 -1.0305 24.5751 -0.555989 -7.46081e-007 -43.5882 -3.90177 -6.73169 -12.6833 0.0397389 
64.2024 98.206 -61.5554 2.7669 2.33881 -15.1365 1.23234e-007 14.8421 1.27353e-009 -3.09148 6.51879 3.20787 0.51659 29.8236 6.51843 0.716291 -39.3013 1.45368 1.16803e-007 7.47049 6.44171e-007 0.295563 11.9462 1.15297 6.64893 27.3161 3.27471 -2.94784 5.93879 -4.20517 10.8584 2.41798 -0.945791 32.0181 -35.4852 24.72 3.77631 -24.5904 -1.70468 2.66385 -72.7084 -17.6398 1.01026 -21.1231 1.74131 22.1599 5.88229 1.66682 -6.11406 27.2248 4.23427 -1.96452 7.32629 3.42623 -10.4566 2.3285 -0.910794 -21.0226 -11.2154 -3.41695 -3.86856 -25.191 -1.74633 80.0963 -74.0626 131.798 -1.04759 -20.6242 1.75213 -16.6962 6.41879 -1.36545 9 -3.38008e-006 -5.23003e-009 8.09357 -14.6936 13.6272 -0.575 -51.431 3.90177 -6.94775 28.2569 -12.9605 2.13081e-007 -43.5882 -3.90177 5.0795 -3.39791 -0.376595 -9 6.86154e-007 -3.19462e-009 -2.93786 -5.73567 -14.771 0.575 -51.4311 3.90177 -1.75649 26.8067 -2.81592 -7.46081e-007 -43.5882 -3.90177 -7.36604 -17.6333 -0.22723 
64.1821 96.84 -62.5416 2.30034 1.73687 -15.0495 1.23234e-007 14.8421 1.27366e-009 -1.54974 7.9386 1.29351 0.51659 29.8236 6.51843 -1.26782 -40.601 2.56228 1.16803e-007 7.47049 6.44171e-007 1.0799 11.5311 1.93957 6.64893 27.3161 3.27471 -2.94784 5.93879 -4.20517 10.8584 2.41798 -0.945791 33.0694 -37.3161 29.4804 3.77631 -24.5904 -1.70468 7.19425 -71.7843 -16.8187 1.01026 -21.1231 1.74131 20.7637 6.54377 1.48038 -6.11406 27.2248 4.23427 -1.96452 7.32629 3.42623 -10.4566 2.3285 -0.910794 -18.9981 -18.3264 -4.96279 -3.86856 -25.191 -1.74633 79.9783 -73.9647 134.187 -1.04759 -20.6242 1.75213 -16.1501 7.00641 -1.28543 9 -3.38008e-006 -5.23017e-009 10.5427 -18.552 15.8501 -0.575 -51.431 3.90177 -8.18363 36.6546 -14.7766 2.13081e-007 -43.5882 -3.90177 3.53478 -0.688582 -0.317212 -9 6.86154e-007 -3.19462e-009 -2.65983 -6.73797 -15.0157 0.575 -51.4311 3.90177 -1.96041 29.7556 -4.16909 -7.46081e-007 -43.5882 -3.90177 -8.0947 -21.5163 -0.504506 
64.2886 95.9361 -63.3778 1.59904 1.32818 -15.9241 1.23234e-007 14.8421 1.27377e-009 -1.1791 10.5617 2.11388 0.51659 29.8236 6.51843 -1.12309 -44.7042 3.17319 1.16803e-007 7.47049 6.44171e-007 0.666682 12.3726 2.52163 6.64893 27.3161 3.27471 -2.94784 5.93879 -4.20517 10.8584 2.41798 -0.945791 35.6259 -40.4825 32.9402 3.77631 -24.5904 -1.70468 3.59655 -74.291 -19.2434 1.01026 -21.1231 1.74131 19.8243 5.99924 1.4765 -6.11406 27.2248 4.23427 -1.96452 7.32629 3.42623 -10.4566 2.3285 -0.910794 -18.6205 -22.9471 -8.26576 -3.86856 -25.191 -1.74633 88.9859 -73.7344 141.262 -1.04759 -20.6242 1.75213 -15.697 7.09108 -1.25225 9 -3.38008e-006 -5.23023e-009 13.8398 -22.313 18.779 -0.575 -51.431 3.90177 -9.5078 44.2311 -17.2633 2.13081e-007 -43.5882 -3.90177 -0.889262 4.93401 0.164487 -9 6.86154e-007 -3.19462e-009 -2.2786 -7.74596 -15.034 0.575 -51.4311 3.90177 -2.07081 32.1522 -4.14187 -7.46081e-007 -43.5882 -3.90177 -8.81485 -23.4359 -0.705223 
64.5795 95.7066 -63.9918 1.44881 1.91723 -16.7736 1.23234e-007 14.8421 1.27389e-009 -0.79103 10.9728 2.75765 0.51659 29.8236 6.51843 -0.755695 -46.4796 3.88569 1.16803e-007 7.47049 6.44171e-007 0.6579 12.2553 3.07811 6.64893 27.3161 3.27471 -2.94784 5.93879 -4.20517 10.8584 2.41798 -0.945791 36.9995 -42.8925 34.4467 3.77631 -24.5904 -1.70468 3.22618 -75.48 -19.202 1.01026 -21.1231 1.74131 19.2 5.42183 1.49142 -6.11406 27.2248 4.23427 -1.96452 7.32629 3.42623 -10.4566 2.3285 -0.910794 -19.6097 -26.5712 -8.57806 -3.86856 -25.191 -1.74633 94.0481 -73.7804 142.817 -1.04759 -20.6242 1.75213 -18.1075 7.0913 -1.39768 9 -3.38008e-006 -5.23028e-009 16.4306 -26.0219 20.7648 -0.575 -51.431 3.90177 -10.0581 48.2093 -19.9022 2.13081e-007 -43.5882 -3.90177 -4.79547 9.2685 0.891324 -9 6.86154e-007 -3.19462e-009 -2.38599 -9.1051 -15.2141 0.575 -51.4311 3.90177 -1.80366 33.0408 -3.48044 -7.46081e-007 -43.5882 -3.90177 -9.15939 -23.4155 -0.74591 
64.8728 96.2153 -64.053 2.17075 2.07486 -17.3209 1.23234e-007 14.8421 1.274e-009 -1.6115 10.5296 3.16716 0.51659 29.8236 6.51843 -0.202093 -45.9164 4.30003 1.16803e-007 7.47049 6.44171e-007 0.802814 11.4954 3.36207 6.64893 27.3161 3.27471 -2.94784 5.93879 -4.20517 10.8584 2.41798 -0.945791 37.2613 -44.2851 34.0997 3.77631 -24.5904 -1.70468 4.16968 -75.6578 -18.1507 1.01026 -21.1231 1.74131 18.786 5.38178 1.4625 -6.11406 27.2248 4.23427 -1.96452 7.32629 3.42623 -10.4566 2.3285 -0.910794 -20.1906 -28.3446 -8.45403 -3.86856 -25.191 -1.74633 93.0482 -73.9606 142.45 -1.04759 -20.6242 1.75213 -17.8946 7.65742 -1.33401 9 -3.38008e-006 -5.2303e-009 16.6463 -27.6258 20.5474 -0.575 -51.431 3.90177 -9.66313 47.0922 -21.0597 2.13081e-007 -43.5882 -3.90177 -4.60802 9.16214 0.875486 -9 6.86154e-007 -3.19463e-009 -3.06297 -9.29597 -15.1947 0.575 -51.4311 3.90177 -1.96318 32.1712 -2.70846 -7.46081e-007 -43.5882 -3.90177 -8.90628 -22.171 -0.632891 
65.1901 97.3086 -63.6711 2.86178 1.70674 -17.2953 1.23234e-007 14.8421 1.27411e-009 -2.14058 9.87863 2.57344 0.51659 29.8236 6.51843 0.30602 -44.1179 4.73037 1.16803e-007 7.47049 6.44171e-007 0.840218 11.0375 3.73021 6.64893 27.3161 3.27471 -2.94784 5.93879 -4.20517 10.8584 2.41798 -0.945791 36.2408 -44.3755 33.1637 3.77631 -24.5904 -1.70468 5.53616 -74.1895 -16.5387 1.01026 -21.1231 1.74131 18.9021 5.06617 1.50375 -6.11406 27.2248 4.23427 -1.96452 7.32629 3.42623 -10.4566 2.3285 -0.910794 -19.9271 -29.248 -6.4101 -3.86856 -25.191 -1.74633 85.6559 -74.1183 135.031 -1.04759 -20.6242 1.75213 -17.3467 7.52172 -1.31441 9 -3.38008e-006 -5.23031e-009 15.4012 -27.4855 18.5609 -0.575 -51.431 3.90177 -8.16324 42.082 -21.4153 2.13081e-007 -43.5882 -3.90177 -2.46834 7.10831 0.430516 -9 6.86154e-007 -3.19463e-009 -3.73597 -8.12768 -15.0404 0.575 -51.4311 3.90177 -2.17643 29.8492 -2.01732 -7.46081e-007 -43.5882 -3.90177 -8.03172 -19.2753 -0.368529 
65.6279 98.6184 -62.7979 3.51575 1.08199 -17.5359 1.23234e-007 14.8421 1.27421e-009 -2.94572 8.98103 2.46935 0.51659 29.8236 6.51843 0.533144 -41.1554 4.64554 1.16803e-007 7.47049 6.44171e-007 1.01623 10.6589 3.68191 6.64893 27.3161 3.27471 -2.94784 5.93879 -4.20517 10.8584 2.41798 -0.945791 33.9894 -43.859 31.2529 3.77631 -24.5904 -1.70468 6.27893 -72.2347 -16.4186 1.01026 -21.1231 1.74131 18.9436 4.86986 1.52714 -6.11406 27.2248 4.23427 -1.96452 7.32629 3.42623 -10.4566 2.3285 -0.910794 -19.1591 -28.4945 -4.00058 -3.86856 -25.191 -1.74633 75.6988 -73.7501 122.983 -1.04759 -20.6242 1.75213 -16.4244 7.0607 -1.29835 9 -3.38008e-006 -5.23031e-009 13.4349 -25.9571 15.7133 -0.575 -51.431 3.90177 -6.3085 34.537 -23.3315 2.13081e-007 -43.5882 -3.90177 -2.22015 7.19976 0.393183 -9 6.86154e-007 -3.19463e-009 -4.78103 -6.30429 -15.1619 0.575 -51.4311 3.90177 -2.15052 27.1166 -0.504842 -7.46081e-007 -43.5882 -3.90177 -7.1011 -15.6925 -0.113403 
